<?xml version="1.0" encoding="UTF-8" standalone="no"?>
<svg width="711px" height="383px" viewBox="0 0 711 383" version="1.1" xmlns="http://www.w3.org/2000/svg" xmlns:xlink="http://www.w3.org/1999/xlink">
    <!-- Generator: Sketch 49.3 (51167) - http://www.bohemiancoding.com/sketch -->
    <title>Logo clearance</title>
    <desc>Created with Sketch.</desc>
    <defs>
        <polygon id="path-1" points="64.9785613 88.0949828 0.0352709677 88.0949828 0.0352709677 0.158737186 64.9785613 0.158737186 64.9785613 88.0949828"></polygon>
        <polygon id="path-3" points="0.589834382 0.0332433897 123.639155 0.0332433897 123.639155 129.46555 0.589834382 129.46555 0.589834382 0.0332433897"></polygon>
        <path d="M124,124 L587,124 L587,258 L124,258 L124,124 Z" id="path-5"></path>
        <mask id="mask-6" maskContentUnits="userSpaceOnUse" maskUnits="objectBoundingBox" x="0" y="0" width="463" height="134" fill="white">
            <use xlink:href="#path-5"></use>
        </mask>
        <path d="M0,0 L711,0 L711,383 L0,383 L0,0 Z" id="path-7"></path>
        <mask id="mask-8" maskContentUnits="userSpaceOnUse" maskUnits="objectBoundingBox" x="0" y="0" width="711" height="383" fill="white">
            <use xlink:href="#path-7"></use>
        </mask>
        <polygon id="path-9" points="0.589834382 0.0332433897 123.639155 0.0332433897 123.639155 129.46555 0.589834382 129.46555 0.589834382 0.0332433897"></polygon>
        <polygon id="path-11" points="0.589834382 0.0332433897 123.639155 0.0332433897 123.639155 129.46555 0.589834382 129.46555 0.589834382 0.0332433897"></polygon>
        <polygon id="path-13" points="0.589834382 0.0332433897 123.639155 0.0332433897 123.639155 129.46555 0.589834382 129.46555 0.589834382 0.0332433897"></polygon>
        <polygon id="path-15" points="0.589834382 0.0332433897 123.639155 0.0332433897 123.639155 129.46555 0.589834382 129.46555 0.589834382 0.0332433897"></polygon>
    </defs>
    <g id="Home" stroke="none" stroke-width="1" fill="none" fill-rule="evenodd">
        <g id="Style-Guide---Homepage" transform="translate(-180.000000, -2631.000000)">
            <g id="Logo-clearance" transform="translate(180.000000, 2631.000000)">
                <g id="Marketing/Logos/HubSpot-Primary" transform="translate(125.000000, 126.000000)">
                    <polygon id="Fill-1" fill="#33475B" points="49.9655484 21 49.9655484 58.031474 16.0872043 58.031474 16.0872043 21 0 21 0 109.390849 16.0872043 109.390849 16.0872043 73.5677722 49.9655484 73.5677722 49.9655484 109.390849 66.0510968 109.390849 66.0510968 21"></polygon>
                    <path d="M117.527501,81.2138559 C117.527501,88.5756046 111.554619,94.5660634 104.222232,94.5660634 C96.8865333,94.5660634 90.9169634,88.5756046 90.9169634,81.2138559 L90.9169634,43.3546215 L75.6808989,43.3546215 L75.6808989,81.2138559 C75.6808989,97.0077904 88.4860817,109.856361 104.222232,109.856361 C119.955071,109.856361 132.756942,97.0077904 132.756942,81.2138559 L132.756942,43.3546215 L117.527501,43.3546215 L117.527501,81.2138559 Z" id="Fill-2" fill="#33475B"></path>
                    <path d="M230.569462,47.2530738 C230.569462,39.4907423 235.687892,37.0307315 241.293161,37.0307315 C245.803871,37.0307315 251.775097,40.4764088 255.669806,44.6650759 L265.659935,32.8453887 C260.669011,26.0737102 250.554688,21.3930409 242.266839,21.3930409 C225.692796,21.3930409 213.750344,31.1217189 213.750344,47.2530738 C213.750344,77.1737868 250.190387,67.6894477 250.190387,84.4407918 C250.190387,89.6068145 245.194495,94.1661454 239.468344,94.1661454 C230.448581,94.1661454 227.520925,89.7331394 223.379484,85.0541323 L212.288172,96.6261563 C219.358925,105.369168 228.131957,109.805498 238.612237,109.805498 C254.333484,109.805498 267.007849,99.9538196 267.007849,84.5588058 C267.007849,51.3137539 230.569462,61.6590968 230.569462,47.2530738" id="Fill-4" fill="#33475B"></path>
                    <path d="M456.001783,95.6637601 C446.988643,95.6637601 444.430256,91.7510132 444.430256,85.7555678 L444.430256,59.2107211 L458.440944,59.2107211 L458.440944,45.7571213 L444.430256,45.7571213 L444.430256,28.0167863 L428.95574,34.9895873 L428.95574,89.0582986 C428.95574,102.882562 438.457374,109.857025 451.492729,109.857025 C453.443396,109.857025 456.125976,109.730701 457.589804,109.368348 L461.3686,95.4227456 C459.663009,95.5407596 457.713998,95.6637601 456.001783,95.6637601" id="Fill-6" fill="#33475B"></path>
                    <path d="M175.500553,94.4177979 C165.927714,94.4177979 158.166445,86.6272095 158.166445,77.0182077 C158.166445,67.4092059 165.927714,59.6186175 175.500553,59.6186175 C185.073391,59.6186175 192.83466,67.4092059 192.83466,77.0182077 C192.83466,86.6272095 185.073391,94.4177979 175.500553,94.4177979 M175.596596,43.7980883 C168.039004,43.7980883 162.766574,46.0004629 157.671327,51.0185526 L157.671327,21.9206135 L142.388897,21.9206135 L142.388897,75.8480404 C142.388897,96.0317645 156.926166,109.856028 173.261757,109.856028 C191.42051,109.856028 207.332187,95.7857634 207.332187,76.8287204 C207.332187,58.1110298 192.659133,43.7980883 175.596596,43.7980883" id="Fill-8" fill="#33475B"></path>
                    <g id="Group-12" transform="translate(276.537634, 42.845665)">
                        <mask id="mask-2" fill="white">
                            <use xlink:href="#path-1"></use>
                        </mask>
                        <g id="Clip-11"></g>
                        <path d="M33.1485828,50.3961478 C23.5740882,50.3961478 15.8128194,42.6055594 15.8128194,32.9965576 C15.8128194,23.3875558 23.5740882,15.5969674 33.1485828,15.5969674 C42.7197656,15.5969674 50.4810344,23.3875558 50.4810344,32.9965576 C50.4810344,42.6055594 42.7197656,50.3961478 33.1485828,50.3961478 M64.9785613,33.1860449 C64.9785613,14.2290019 49.0668839,0.158737186 30.9081312,0.158737186 C14.5725398,0.158737186 0.0352709677,13.9830008 0.0352709677,34.1667249 L0.0352709677,88.0958139 L15.3177011,88.0958139 L15.3177011,58.9962127 C20.4129484,64.0159646 25.6853785,66.2183391 33.2429699,66.2183391 C50.3055075,66.2183391 64.9785613,51.9037355 64.9785613,33.1860449" id="Fill-10" fill="#33475B" mask="url(#mask-2)"></path>
                    </g>
                    <g id="Group-15" transform="translate(296.000000, 0.000000)">
                        <mask id="mask-4" fill="white">
                            <use xlink:href="#path-3"></use>
                        </mask>
                        <g id="Clip-14"></g>
                        <path d="M89.9793914,93.3033909 C80.4479505,93.3033909 72.7214559,85.5477081 72.7214559,75.9819227 C72.7214559,66.4144751 80.4479505,58.6587923 89.9793914,58.6587923 C99.5108323,58.6587923 107.237327,66.4144751 107.237327,75.9819227 C107.237327,85.5477081 99.5108323,93.3033909 89.9793914,93.3033909 M95.145843,42.6321541 L95.145843,27.2221808 C99.1531548,25.3223211 101.959929,21.2533302 101.959929,16.5311066 L101.959929,16.1754024 C101.959929,9.65803581 96.647757,4.32579609 90.1549183,4.32579609 L89.8022086,4.32579609 C83.3093699,4.32579609 77.9971978,9.65803581 77.9971978,16.1754024 L77.9971978,16.5311066 C77.9971978,21.2533302 80.803972,25.3239832 84.8112839,27.2238429 L84.8112839,42.6321541 C78.8450258,43.5579825 73.393757,46.0279664 68.8979505,49.663131 L26.7466602,16.750513 C27.0248538,15.6784137 27.2202516,14.5747331 27.2219075,13.4145388 C27.2285312,6.03450632 21.2771763,0.0423853219 13.9216065,0.032412305 C6.56934839,0.0241014576 0.598122581,5.99960076 0.589843011,13.3812955 C0.581563441,20.7629902 6.53291828,26.7551112 13.8884882,26.763422 C16.2845957,26.7667463 18.5035204,26.0835947 20.4475634,24.9732655 L61.9099935,57.3506649 C58.3845527,62.6928776 56.317972,69.0922302 56.317972,75.9819227 C56.317972,83.1940761 58.5882301,89.8660244 62.4233269,95.3528459 L49.8151978,108.010267 C48.8183376,107.709414 47.7850473,107.499981 46.6888323,107.499981 C40.6464022,107.499981 35.7465527,112.416678 35.7465527,118.481934 C35.7465527,124.548853 40.6464022,129.46555 46.6888323,129.46555 C52.7329183,129.46555 57.6311118,124.548853 57.6311118,118.481934 C57.6311118,117.384902 57.4224667,116.346047 57.1227462,115.34542 L69.5950903,102.82596 C75.2566602,107.16256 82.3075419,109.768842 89.9793914,109.768842 C108.570338,109.768842 123.639155,94.6414374 123.639155,75.9819227 C123.639155,59.0892942 111.276101,45.1337192 95.145843,42.6321541" id="Fill-13" fill="#FF7A59" mask="url(#mask-4)"></path>
                    </g>
                </g>
                <use id="Rectangle-8" stroke="#99ACC2" mask="url(#mask-6)" stroke-width="2" stroke-dasharray="7,7" xlink:href="#path-5"></use>
                <use id="Rectangle-8" stroke="#99ACC2" mask="url(#mask-8)" stroke-width="2" stroke-dasharray="7,7" xlink:href="#path-7"></use>
                <g id="Group-15" transform="translate(585.000000, 126.000000)">
                    <mask id="mask-10" fill="white">
                        <use xlink:href="#path-9"></use>
                    </mask>
                    <g id="Clip-14"></g>
                    <path d="M89.9793914,93.3033909 C80.4479505,93.3033909 72.7214559,85.5477081 72.7214559,75.9819227 C72.7214559,66.4144751 80.4479505,58.6587923 89.9793914,58.6587923 C99.5108323,58.6587923 107.237327,66.4144751 107.237327,75.9819227 C107.237327,85.5477081 99.5108323,93.3033909 89.9793914,93.3033909 M95.145843,42.6321541 L95.145843,27.2221808 C99.1531548,25.3223211 101.959929,21.2533302 101.959929,16.5311066 L101.959929,16.1754024 C101.959929,9.65803581 96.647757,4.32579609 90.1549183,4.32579609 L89.8022086,4.32579609 C83.3093699,4.32579609 77.9971978,9.65803581 77.9971978,16.1754024 L77.9971978,16.5311066 C77.9971978,21.2533302 80.803972,25.3239832 84.8112839,27.2238429 L84.8112839,42.6321541 C78.8450258,43.5579825 73.393757,46.0279664 68.8979505,49.663131 L26.7466602,16.750513 C27.0248538,15.6784137 27.2202516,14.5747331 27.2219075,13.4145388 C27.2285312,6.03450632 21.2771763,0.0423853219 13.9216065,0.032412305 C6.56934839,0.0241014576 0.598122581,5.99960076 0.589843011,13.3812955 C0.581563441,20.7629902 6.53291828,26.7551112 13.8884882,26.763422 C16.2845957,26.7667463 18.5035204,26.0835947 20.4475634,24.9732655 L61.9099935,57.3506649 C58.3845527,62.6928776 56.317972,69.0922302 56.317972,75.9819227 C56.317972,83.1940761 58.5882301,89.8660244 62.4233269,95.3528459 L49.8151978,108.010267 C48.8183376,107.709414 47.7850473,107.499981 46.6888323,107.499981 C40.6464022,107.499981 35.7465527,112.416678 35.7465527,118.481934 C35.7465527,124.548853 40.6464022,129.46555 46.6888323,129.46555 C52.7329183,129.46555 57.6311118,124.548853 57.6311118,118.481934 C57.6311118,117.384902 57.4224667,116.346047 57.1227462,115.34542 L69.5950903,102.82596 C75.2566602,107.16256 82.3075419,109.768842 89.9793914,109.768842 C108.570338,109.768842 123.639155,94.6414374 123.639155,75.9819227 C123.639155,59.0892942 111.276101,45.1337192 95.145843,42.6321541" id="Fill-13" fill="#F2F5F8" mask="url(#mask-10)"></path>
                </g>
                <g id="Group-15" transform="translate(0.000000, 126.000000)">
                    <mask id="mask-12" fill="white">
                        <use xlink:href="#path-11"></use>
                    </mask>
                    <g id="Clip-14"></g>
                    <path d="M89.9793914,93.3033909 C80.4479505,93.3033909 72.7214559,85.5477081 72.7214559,75.9819227 C72.7214559,66.4144751 80.4479505,58.6587923 89.9793914,58.6587923 C99.5108323,58.6587923 107.237327,66.4144751 107.237327,75.9819227 C107.237327,85.5477081 99.5108323,93.3033909 89.9793914,93.3033909 M95.145843,42.6321541 L95.145843,27.2221808 C99.1531548,25.3223211 101.959929,21.2533302 101.959929,16.5311066 L101.959929,16.1754024 C101.959929,9.65803581 96.647757,4.32579609 90.1549183,4.32579609 L89.8022086,4.32579609 C83.3093699,4.32579609 77.9971978,9.65803581 77.9971978,16.1754024 L77.9971978,16.5311066 C77.9971978,21.2533302 80.803972,25.3239832 84.8112839,27.2238429 L84.8112839,42.6321541 C78.8450258,43.5579825 73.393757,46.0279664 68.8979505,49.663131 L26.7466602,16.750513 C27.0248538,15.6784137 27.2202516,14.5747331 27.2219075,13.4145388 C27.2285312,6.03450632 21.2771763,0.0423853219 13.9216065,0.032412305 C6.56934839,0.0241014576 0.598122581,5.99960076 0.589843011,13.3812955 C0.581563441,20.7629902 6.53291828,26.7551112 13.8884882,26.763422 C16.2845957,26.7667463 18.5035204,26.0835947 20.4475634,24.9732655 L61.9099935,57.3506649 C58.3845527,62.6928776 56.317972,69.0922302 56.317972,75.9819227 C56.317972,83.1940761 58.5882301,89.8660244 62.4233269,95.3528459 L49.8151978,108.010267 C48.8183376,107.709414 47.7850473,107.499981 46.6888323,107.499981 C40.6464022,107.499981 35.7465527,112.416678 35.7465527,118.481934 C35.7465527,124.548853 40.6464022,129.46555 46.6888323,129.46555 C52.7329183,129.46555 57.6311118,124.548853 57.6311118,118.481934 C57.6311118,117.384902 57.4224667,116.346047 57.1227462,115.34542 L69.5950903,102.82596 C75.2566602,107.16256 82.3075419,109.768842 89.9793914,109.768842 C108.570338,109.768842 123.639155,94.6414374 123.639155,75.9819227 C123.639155,59.0892942 111.276101,45.1337192 95.145843,42.6321541" id="Fill-13" fill="#F2F5F8" mask="url(#mask-12)"></path>
                </g>
                <g id="Group-15-Copy-6" transform="translate(356.000000, 320.000000) rotate(-270.000000) translate(-356.000000, -320.000000) translate(294.000000, 255.000000)">
                    <mask id="mask-14" fill="white">
                        <use xlink:href="#path-13"></use>
                    </mask>
                    <g id="Clip-14"></g>
                    <path d="M89.9793914,93.3033909 C80.4479505,93.3033909 72.7214559,85.5477081 72.7214559,75.9819227 C72.7214559,66.4144751 80.4479505,58.6587923 89.9793914,58.6587923 C99.5108323,58.6587923 107.237327,66.4144751 107.237327,75.9819227 C107.237327,85.5477081 99.5108323,93.3033909 89.9793914,93.3033909 M95.145843,42.6321541 L95.145843,27.2221808 C99.1531548,25.3223211 101.959929,21.2533302 101.959929,16.5311066 L101.959929,16.1754024 C101.959929,9.65803581 96.647757,4.32579609 90.1549183,4.32579609 L89.8022086,4.32579609 C83.3093699,4.32579609 77.9971978,9.65803581 77.9971978,16.1754024 L77.9971978,16.5311066 C77.9971978,21.2533302 80.803972,25.3239832 84.8112839,27.2238429 L84.8112839,42.6321541 C78.8450258,43.5579825 73.393757,46.0279664 68.8979505,49.663131 L26.7466602,16.750513 C27.0248538,15.6784137 27.2202516,14.5747331 27.2219075,13.4145388 C27.2285312,6.03450632 21.2771763,0.0423853219 13.9216065,0.032412305 C6.56934839,0.0241014576 0.598122581,5.99960076 0.589843011,13.3812955 C0.581563441,20.7629902 6.53291828,26.7551112 13.8884882,26.763422 C16.2845957,26.7667463 18.5035204,26.0835947 20.4475634,24.9732655 L61.9099935,57.3506649 C58.3845527,62.6928776 56.317972,69.0922302 56.317972,75.9819227 C56.317972,83.1940761 58.5882301,89.8660244 62.4233269,95.3528459 L49.8151978,108.010267 C48.8183376,107.709414 47.7850473,107.499981 46.6888323,107.499981 C40.6464022,107.499981 35.7465527,112.416678 35.7465527,118.481934 C35.7465527,124.548853 40.6464022,129.46555 46.6888323,129.46555 C52.7329183,129.46555 57.6311118,124.548853 57.6311118,118.481934 C57.6311118,117.384902 57.4224667,116.346047 57.1227462,115.34542 L69.5950903,102.82596 C75.2566602,107.16256 82.3075419,109.768842 89.9793914,109.768842 C108.570338,109.768842 123.639155,94.6414374 123.639155,75.9819227 C123.639155,59.0892942 111.276101,45.1337192 95.145843,42.6321541" id="Fill-13" fill="#F2F5F8" mask="url(#mask-14)"></path>
                </g>
                <g id="Group-15-Copy-8" transform="translate(356.000000, 62.000000) rotate(-270.000000) translate(-356.000000, -62.000000) translate(294.000000, -3.000000)">
                    <mask id="mask-16" fill="white">
                        <use xlink:href="#path-15"></use>
                    </mask>
                    <g id="Clip-14"></g>
                    <path d="M89.9793914,93.3033909 C80.4479505,93.3033909 72.7214559,85.5477081 72.7214559,75.9819227 C72.7214559,66.4144751 80.4479505,58.6587923 89.9793914,58.6587923 C99.5108323,58.6587923 107.237327,66.4144751 107.237327,75.9819227 C107.237327,85.5477081 99.5108323,93.3033909 89.9793914,93.3033909 M95.145843,42.6321541 L95.145843,27.2221808 C99.1531548,25.3223211 101.959929,21.2533302 101.959929,16.5311066 L101.959929,16.1754024 C101.959929,9.65803581 96.647757,4.32579609 90.1549183,4.32579609 L89.8022086,4.32579609 C83.3093699,4.32579609 77.9971978,9.65803581 77.9971978,16.1754024 L77.9971978,16.5311066 C77.9971978,21.2533302 80.803972,25.3239832 84.8112839,27.2238429 L84.8112839,42.6321541 C78.8450258,43.5579825 73.393757,46.0279664 68.8979505,49.663131 L26.7466602,16.750513 C27.0248538,15.6784137 27.2202516,14.5747331 27.2219075,13.4145388 C27.2285312,6.03450632 21.2771763,0.0423853219 13.9216065,0.032412305 C6.56934839,0.0241014576 0.598122581,5.99960076 0.589843011,13.3812955 C0.581563441,20.7629902 6.53291828,26.7551112 13.8884882,26.763422 C16.2845957,26.7667463 18.5035204,26.0835947 20.4475634,24.9732655 L61.9099935,57.3506649 C58.3845527,62.6928776 56.317972,69.0922302 56.317972,75.9819227 C56.317972,83.1940761 58.5882301,89.8660244 62.4233269,95.3528459 L49.8151978,108.010267 C48.8183376,107.709414 47.7850473,107.499981 46.6888323,107.499981 C40.6464022,107.499981 35.7465527,112.416678 35.7465527,118.481934 C35.7465527,124.548853 40.6464022,129.46555 46.6888323,129.46555 C52.7329183,129.46555 57.6311118,124.548853 57.6311118,118.481934 C57.6311118,117.384902 57.4224667,116.346047 57.1227462,115.34542 L69.5950903,102.82596 C75.2566602,107.16256 82.3075419,109.768842 89.9793914,109.768842 C108.570338,109.768842 123.639155,94.6414374 123.639155,75.9819227 C123.639155,59.0892942 111.276101,45.1337192 95.145843,42.6321541" id="Fill-13" fill="#F2F5F8" mask="url(#mask-16)"></path>
                </g>
            </g>
        </g>
    </g>
</svg>